<svg xmlns="http://www.w3.org/2000/svg" width="32" height="32" viewBox="0 0 32 32" role="img" aria-label="STP save the planet badge">
  <!-- Outer gold border -->
  <circle cx="16" cy="16" r="15" fill="none" stroke="#d4a549" stroke-width="1.2"/>
  <!-- Dark ring -->
  <circle cx="16" cy="16" r="13.2" fill="#083a54"/>
  <!-- Main blue background -->
  <circle cx="16" cy="16" r="11.6" fill="#1e6ea5"/>
  <!-- Faint curved text (decorative) -->
  <g fill="#ff9a4d" opacity="0.18" font-family="Arial, sans-serif" font-size="3.2" font-weight="700">
    <text x="4" y="7.5">SAVE THE</text>
    <text x="19" y="29.5">PLANET</text>
  </g>
  <!-- Leaves / plant -->
  <ellipse cx="16" cy="14.6" rx="5.2" ry="3.2" fill="#7fbf4a" />
  <ellipse cx="13" cy="13.2" rx="2.6" ry="1.9" fill="#69b03a" transform="rotate(-18 13 13.2)"/>
  <ellipse cx="19.5" cy="13.2" rx="2.6" ry="1.9" fill="#69b03a" transform="rotate(18 19.5 13.2)"/>
  <!-- Small sprout at top -->
  <path d="M16 7.2 c0.9 0.0 1.6 0.8 1.6 1.8 -0.0 0.1 -0.0 0.1 -0.1 0.2 -0.6 0.8 -2.1 0.8 -2.7 0 -0.1 -0.1 -0.1 -0.1 -0.1 -0.2 0 -1.0 0.7 -1.8 1.3 -1.8z" fill="#6ab04a"/>
  <circle cx="16" cy="6.4" r="0.9" fill="#6ab04a"/>
  <!-- STP letters -->
  <text x="16" y="20.5" text-anchor="middle" font-family="Georgia, 'Times New Roman', serif" font-size="8.2" font-weight="700" fill="#d4a549" stroke="#b08836" stroke-width="0.12">STP</text>
</svg>